<svg xmlns="http://www.w3.org/2000/svg" xmlns:xlink="http://www.w3.org/1999/xlink" width="321" zoomAndPan="magnify" viewBox="0 0 240.75 141.750002" height="189" preserveAspectRatio="xMidYMid meet" version="1.0"><defs><clipPath id="b297670812"><path d="M 0.0859375 0 L 47 0 L 47 90 L 0.0859375 90 Z M 0.0859375 0 " clip-rule="nonzero"/></clipPath><clipPath id="29555fbe59"><path d="M 46.351562 -3.816406 L 3.25 89.261719 L -43.625 67.554688 L -0.527344 -25.519531 Z M 46.351562 -3.816406 " clip-rule="nonzero"/></clipPath><clipPath id="664a8c8653"><path d="M 70.023438 -54.941406 L -23.09375 146.15625 L -167.121094 79.460938 L -74.003906 -121.632812 Z M 70.023438 -54.941406 " clip-rule="nonzero"/></clipPath></defs><g clip-path="url(#b297670812)"><g clip-path="url(#29555fbe59)"><g clip-path="url(#664a8c8653)"><path fill="#d1ffb7" d="M -93.453125 113.019531 C -99.148438 110.511719 -104.390625 107.332031 -108.695312 102.871094 C -117.828125 93.417969 -121.367188 82.113281 -119.070312 69.144531 C -118.339844 65.207031 -117.144531 61.421875 -115.472656 57.785156 C -113.875 54.230469 -112.644531 50.554688 -111.789062 46.753906 C -110.527344 41.128906 -111.023438 35.539062 -112.746094 30.054688 C -114.121094 25.675781 -116.078125 21.546875 -118.019531 17.394531 C -119.300781 14.671875 -120.71875 11.996094 -121.296875 8.996094 C -121.382812 8.613281 -121.519531 8.25 -121.703125 7.902344 C -124.621094 1.96875 -124.871094 -4.265625 -123.574219 -10.601562 C -122.359375 -16.539062 -119.390625 -21.640625 -115.480469 -26.210938 C -112.265625 -29.996094 -108.617188 -33.359375 -104.953125 -36.695312 C -100.632812 -40.621094 -96.308594 -44.542969 -92.679688 -49.140625 C -90.152344 -52.34375 -87.796875 -55.710938 -86.328125 -59.539062 C -84.941406 -63.160156 -83.78125 -66.871094 -82.671875 -70.585938 C -81.152344 -75.71875 -80.050781 -80.957031 -78.292969 -85.980469 C -76.882812 -90.140625 -75.046875 -94.105469 -72.785156 -97.871094 C -68.761719 -104.375 -62.644531 -107.953125 -54.972656 -108.570312 C -48.78125 -109.074219 -43.117188 -107.335938 -37.753906 -104.21875 C -29.996094 -99.703125 -23.554688 -93.695312 -17.816406 -86.914062 C -12.851562 -81.054688 -8.089844 -75.019531 -3.265625 -69.046875 C -0.210938 -65.261719 2.957031 -61.585938 6.375 -58.117188 C 10.835938 -53.582031 15.886719 -49.820312 21.183594 -46.351562 C 26.542969 -42.832031 31.929688 -39.347656 36.472656 -34.746094 C 44.78125 -26.347656 47.703125 -16.328125 45.320312 -4.789062 C 44.519531 -0.96875 43.292969 2.710938 41.636719 6.246094 C 40.125 9.511719 38.582031 12.761719 37.097656 16.042969 C 36.449219 17.472656 35.566406 18.738281 34.453125 19.84375 C 31.058594 23.316406 27.621094 26.753906 24.332031 30.328125 C 19.269531 35.777344 15.097656 41.835938 11.820312 48.511719 C 9.765625 52.726562 8.445312 57.207031 7.238281 61.714844 C 5.863281 66.875 4.757812 72.109375 3.347656 77.253906 C 2.558594 80.144531 1.839844 83.09375 0.34375 85.757812 C -0.0117188 86.449219 -0.257812 87.179688 -0.398438 87.945312 C -0.625 89.222656 -1.164062 90.347656 -2.019531 91.320312 C -2.367188 91.671875 -2.632812 92.070312 -2.824219 92.523438 C -4.546875 97.136719 -7.820312 100.59375 -11.332031 103.828125 C -16.355469 108.40625 -22.046875 111.886719 -28.40625 114.277344 C -44.664062 120.5625 -61.332031 121.515625 -78.300781 118.035156 C -83.566406 117.007812 -88.617188 115.335938 -93.453125 113.019531 Z M -42.824219 -104.324219 C -42.601562 -103.808594 -42.558594 -103.492188 -42.382812 -103.351562 C -41.988281 -103.046875 -41.484375 -102.902344 -41.152344 -103.421875 C -41.058594 -103.570312 -41.203125 -104.078125 -41.34375 -104.132812 C -41.832031 -104.25 -42.324219 -104.3125 -42.824219 -104.324219 Z M -42.824219 -104.324219 " fill-opacity="1" fill-rule="nonzero"/></g></g></g></svg>