<svg xmlns="http://www.w3.org/2000/svg" xmlns:xlink="http://www.w3.org/1999/xlink" width="321" zoomAndPan="magnify" viewBox="0 0 240.75 141.750002" height="189" preserveAspectRatio="xMidYMid meet" version="1.0"><defs><filter x="0%" y="0%" width="100%" height="100%" id="81365f3485"><feColorMatrix values="0 0 0 0 1 0 0 0 0 1 0 0 0 0 1 0 0 0 1 0" color-interpolation-filters="sRGB"/></filter><clipPath id="4d8036c31c"><path d="M 0.0859375 0 L 240.414062 0 L 240.414062 141.5 L 0.0859375 141.5 Z M 0.0859375 0 " clip-rule="nonzero"/></clipPath><mask id="0da46cfe24"><g filter="url(#81365f3485)"><rect x="-24.075" width="288.9" fill="#000000" y="-14.175" height="170.100003" fill-opacity="0.2"/></g></mask><clipPath id="388efa07a7"><path d="M 143 133 L 240.414062 133 L 240.414062 141.5 L 143 141.5 Z M 143 133 " clip-rule="nonzero"/></clipPath><clipPath id="42f2cff6b7"><path d="M 127 117 L 240.414062 117 L 240.414062 141.5 L 127 141.5 Z M 127 117 " clip-rule="nonzero"/></clipPath><clipPath id="5ce13f94c2"><path d="M 111 100 L 240.414062 100 L 240.414062 141.5 L 111 141.5 Z M 111 100 " clip-rule="nonzero"/></clipPath><clipPath id="1969696672"><path d="M 95 83 L 240.414062 83 L 240.414062 141.5 L 95 141.5 Z M 95 83 " clip-rule="nonzero"/></clipPath><clipPath id="59881d3bd2"><path d="M 78 66 L 240.414062 66 L 240.414062 141.5 L 78 141.5 Z M 78 66 " clip-rule="nonzero"/></clipPath><clipPath id="3bf99c98cb"><path d="M 62 50 L 240.414062 50 L 240.414062 141.5 L 62 141.5 Z M 62 50 " clip-rule="nonzero"/></clipPath><clipPath id="b1fb0a42f2"><path d="M 46 33 L 240.414062 33 L 240.414062 141.5 L 46 141.5 Z M 46 33 " clip-rule="nonzero"/></clipPath><clipPath id="569df624b0"><path d="M 30 16 L 240.414062 16 L 240.414062 141.5 L 30 141.5 Z M 30 16 " clip-rule="nonzero"/></clipPath><clipPath id="22443f0600"><path d="M 14 0 L 240.414062 0 L 240.414062 141.5 L 14 141.5 Z M 14 0 " clip-rule="nonzero"/></clipPath><clipPath id="3d112bd941"><path d="M 0.0859375 0 L 240.414062 0 L 240.414062 141.5 L 0.0859375 141.5 Z M 0.0859375 0 " clip-rule="nonzero"/></clipPath><clipPath id="4fe45c5077"><path d="M 0.0859375 0 L 233 0 L 233 141.5 L 0.0859375 141.5 Z M 0.0859375 0 " clip-rule="nonzero"/></clipPath><clipPath id="7df17d8f4a"><path d="M 0.0859375 0 L 228 0 L 228 141.5 L 0.0859375 141.5 Z M 0.0859375 0 " clip-rule="nonzero"/></clipPath><clipPath id="d8afdfe62b"><path d="M 0.0859375 0 L 222 0 L 222 141.5 L 0.0859375 141.5 Z M 0.0859375 0 " clip-rule="nonzero"/></clipPath><clipPath id="30d4f5a47b"><path d="M 0.0859375 0 L 214 0 L 214 141.5 L 0.0859375 141.5 Z M 0.0859375 0 " clip-rule="nonzero"/></clipPath><clipPath id="9c29029081"><path d="M 0.0859375 0 L 204 0 L 204 141.5 L 0.0859375 141.5 Z M 0.0859375 0 " clip-rule="nonzero"/></clipPath><clipPath id="82af346af3"><path d="M 0.0859375 0 L 185 0 L 185 141.5 L 0.0859375 141.5 Z M 0.0859375 0 " clip-rule="nonzero"/></clipPath><clipPath id="9628b29fcb"><path d="M 0.0859375 0 L 150 0 L 150 141.5 L 0.0859375 141.5 Z M 0.0859375 0 " clip-rule="nonzero"/></clipPath><clipPath id="7979366e4a"><path d="M 0.0859375 0 L 100 0 L 100 141.5 L 0.0859375 141.5 Z M 0.0859375 0 " clip-rule="nonzero"/></clipPath><clipPath id="d1d75c393d"><path d="M 0.0859375 0 L 65 0 L 65 141.5 L 0.0859375 141.5 Z M 0.0859375 0 " clip-rule="nonzero"/></clipPath><clipPath id="1356401039"><path d="M 0.0859375 0 L 41 0 L 41 122 L 0.0859375 122 Z M 0.0859375 0 " clip-rule="nonzero"/></clipPath><clipPath id="9f036def24"><path d="M 0.0859375 0 L 23 0 L 23 89 L 0.0859375 89 Z M 0.0859375 0 " clip-rule="nonzero"/></clipPath><clipPath id="b0e63c845e"><path d="M 0.0859375 0 L 7 0 L 7 35 L 0.0859375 35 Z M 0.0859375 0 " clip-rule="nonzero"/></clipPath><clipPath id="7975ef439c"><rect x="0" width="241" y="0" height="142"/></clipPath></defs><g clip-path="url(#4d8036c31c)"><g mask="url(#0da46cfe24)"><g transform="matrix(1, 0, 0, 1, 0, -0.000000000000007933)"><g clip-path="url(#7975ef439c)"><g clip-path="url(#388efa07a7)"><path fill="#414042" d="M 276.351562 134.019531 C 261.5 141.1875 259.175781 150.582031 256.925781 159.660156 C 255.972656 163.496094 254.992188 167.464844 253.082031 171.277344 C 249.496094 178.429688 240.492188 180.625 230.960938 182.949219 C 222.453125 185.023438 213.65625 187.175781 208.105469 193.058594 C 202.398438 199.101562 201.296875 205.40625 200.027344 212.695312 C 198.695312 220.332031 197.1875 228.984375 189.78125 239.300781 C 177.328125 256.6875 161.964844 267.832031 144.128906 272.433594 C 143.8125 272.515625 143.625 272.832031 143.707031 273.148438 C 143.777344 273.410156 144.011719 273.585938 144.273438 273.585938 C 144.320312 273.585938 144.375 273.578125 144.421875 273.566406 C 162.53125 268.902344 178.109375 257.601562 190.734375 239.984375 C 198.292969 229.453125 199.824219 220.660156 201.179688 212.902344 C 202.417969 205.792969 203.492188 199.652344 208.960938 193.859375 C 214.277344 188.226562 222.902344 186.117188 231.242188 184.085938 C 241.042969 181.6875 250.300781 179.433594 254.132812 171.800781 C 256.101562 167.875 257.101562 163.835938 258.066406 159.941406 C 260.351562 150.714844 262.503906 142 276.863281 135.070312 C 277.15625 134.933594 277.28125 134.582031 277.140625 134.289062 C 276.992188 134.003906 276.640625 133.878906 276.351562 134.019531 Z M 276.351562 134.019531 " fill-opacity="1" fill-rule="nonzero"/></g><g clip-path="url(#42f2cff6b7)"><path fill="#414042" d="M 276.355469 117.277344 C 259.703125 125.296875 257.101562 135.820312 254.589844 145.992188 C 253.527344 150.300781 252.429688 154.757812 250.277344 159.039062 C 246.242188 167.089844 236.113281 169.542969 225.382812 172.136719 C 215.828125 174.453125 205.957031 176.839844 199.734375 183.425781 C 193.339844 190.1875 192.113281 197.246094 190.691406 205.417969 C 189.203125 213.992188 187.519531 223.707031 179.191406 235.3125 C 165.207031 254.816406 147.953125 267.304688 127.917969 272.441406 C 127.601562 272.523438 127.414062 272.839844 127.496094 273.152344 C 127.566406 273.417969 127.800781 273.589844 128.0625 273.589844 C 128.109375 273.589844 128.164062 273.585938 128.210938 273.574219 C 148.519531 268.367188 165.992188 255.722656 180.144531 235.992188 C 188.625 224.175781 190.335938 214.320312 191.847656 205.621094 C 193.234375 197.636719 194.429688 190.742188 200.589844 184.234375 C 206.578125 177.902344 216.28125 175.554688 225.660156 173.28125 C 236.660156 170.617188 247.046875 168.105469 251.324219 159.574219 C 253.53125 155.171875 254.648438 150.652344 255.722656 146.277344 C 258.28125 135.914062 260.699219 126.121094 276.859375 118.335938 C 277.152344 118.195312 277.273438 117.84375 277.132812 117.558594 C 276.992188 117.261719 276.640625 117.136719 276.355469 117.277344 Z M 276.355469 117.277344 " fill-opacity="1" fill-rule="nonzero"/></g><g clip-path="url(#5ce13f94c2)"><path fill="#414042" d="M 276.355469 100.535156 C 268.074219 104.519531 262.214844 109.390625 258.445312 115.433594 C 255.082031 120.828125 253.644531 126.671875 252.253906 132.316406 C 251.078125 137.097656 249.859375 142.042969 247.476562 146.796875 C 242.988281 155.746094 231.730469 158.449219 219.808594 161.320312 C 209.21875 163.867188 198.265625 166.5 191.371094 173.785156 C 184.285156 181.269531 182.933594 189.078125 181.375 198.128906 C 179.726562 207.644531 177.863281 218.429688 168.609375 231.308594 C 153.09375 252.929688 133.957031 266.769531 111.71875 272.441406 C 111.402344 272.523438 111.214844 272.839844 111.296875 273.152344 C 111.367188 273.417969 111.601562 273.589844 111.863281 273.589844 C 111.910156 273.589844 111.957031 273.585938 112.011719 273.574219 C 134.519531 267.832031 153.882812 253.839844 169.5625 231.992188 C 178.972656 218.894531 180.859375 207.972656 182.527344 198.332031 C 184.054688 189.46875 185.382812 181.824219 192.222656 174.597656 C 198.878906 167.5625 209.660156 164.976562 220.089844 162.464844 C 232.28125 159.53125 243.792969 156.761719 248.527344 147.328125 C 250.96875 142.457031 252.199219 137.445312 253.390625 132.601562 C 256.226562 121.09375 258.902344 110.226562 276.871094 101.59375 C 277.164062 101.453125 277.285156 101.101562 277.144531 100.816406 C 276.992188 100.519531 276.640625 100.394531 276.355469 100.535156 Z M 276.355469 100.535156 " fill-opacity="1" fill-rule="nonzero"/></g><g clip-path="url(#1969696672)"><path fill="#414042" d="M 158.972656 227.984375 C 169.304688 213.601562 171.375 201.617188 173.195312 191.03125 C 174.875 181.296875 176.320312 172.886719 183.851562 164.945312 C 191.175781 157.21875 203.035156 154.378906 214.503906 151.640625 C 227.894531 148.4375 240.535156 145.410156 245.710938 135.078125 C 248.390625 129.734375 249.742188 124.234375 251.042969 118.917969 C 254.152344 106.273438 257.085938 94.332031 276.859375 84.839844 C 277.152344 84.699219 277.273438 84.347656 277.132812 84.0625 C 276.992188 83.769531 276.640625 83.648438 276.355469 83.789062 C 267.261719 88.152344 260.828125 93.496094 256.699219 100.121094 C 253.007812 106.039062 251.433594 112.445312 249.910156 118.644531 C 248.621094 123.898438 247.289062 129.328125 244.664062 134.558594 C 239.726562 144.402344 227.34375 147.367188 214.230469 150.507812 C 202.59375 153.285156 190.5625 156.167969 183 164.144531 C 175.230469 172.347656 173.75 180.914062 172.039062 190.835938 C 170.242188 201.292969 168.195312 213.148438 158.019531 227.308594 C 140.980469 251.042969 119.945312 266.226562 95.511719 272.433594 C 95.199219 272.515625 95.011719 272.832031 95.09375 273.148438 C 95.164062 273.410156 95.394531 273.585938 95.660156 273.585938 C 95.707031 273.585938 95.753906 273.578125 95.804688 273.566406 C 120.511719 267.289062 141.761719 251.953125 158.972656 227.984375 Z M 158.972656 227.984375 " fill-opacity="1" fill-rule="nonzero"/></g><g clip-path="url(#59881d3bd2)"><path fill="#414042" d="M 276.355469 67.050781 C 254.273438 77.628906 251.019531 90.914062 247.574219 104.976562 C 246.171875 110.699219 244.71875 116.625 241.859375 122.320312 C 236.476562 133.0625 222.960938 136.28125 208.65625 139.6875 C 195.980469 142.707031 182.863281 145.828125 174.632812 154.507812 C 166.175781 163.421875 164.574219 172.75 162.714844 183.546875 C 160.757812 194.945312 158.539062 207.859375 147.433594 223.304688 C 128.863281 249.15625 105.941406 265.6875 79.308594 272.433594 C 78.992188 272.515625 78.804688 272.832031 78.886719 273.140625 C 78.953125 273.40625 79.191406 273.578125 79.453125 273.578125 C 79.5 273.578125 79.546875 273.574219 79.601562 273.5625 C 106.507812 266.746094 129.652344 250.066406 148.386719 223.984375 C 159.648438 208.320312 161.894531 195.257812 163.875 183.738281 C 165.695312 173.132812 167.273438 163.964844 175.488281 155.308594 C 183.476562 146.878906 196.417969 143.800781 208.929688 140.820312 C 223.511719 137.351562 237.28125 134.066406 242.914062 122.839844 C 245.828125 117.019531 247.292969 111.039062 248.714844 105.25 C 252.089844 91.464844 255.285156 78.441406 276.863281 68.101562 C 277.15625 67.960938 277.28125 67.613281 277.140625 67.324219 C 276.992188 67.03125 276.640625 66.910156 276.355469 67.050781 Z M 276.355469 67.050781 " fill-opacity="1" fill-rule="nonzero"/></g><g clip-path="url(#3bf99c98cb)"><path fill="#414042" d="M 137.800781 219.988281 C 149.988281 203.046875 152.410156 188.914062 154.542969 176.453125 C 156.511719 164.96875 158.210938 155.050781 167.109375 145.675781 C 175.773438 136.550781 189.789062 133.21875 203.347656 130.007812 C 219.117188 126.261719 234.019531 122.726562 240.097656 110.601562 C 243.246094 104.308594 244.835938 97.835938 246.363281 91.582031 C 250.015625 76.65625 253.46875 62.558594 276.859375 51.359375 C 277.152344 51.21875 277.273438 50.867188 277.132812 50.582031 C 276.992188 50.289062 276.640625 50.167969 276.355469 50.308594 C 265.636719 55.4375 258.066406 61.71875 253.207031 69.503906 C 248.863281 76.46875 247.019531 84.007812 245.230469 91.300781 C 243.710938 97.496094 242.148438 103.90625 239.058594 110.074219 C 233.222656 121.71875 218.582031 125.195312 203.078125 128.867188 C 189.355469 132.121094 175.164062 135.488281 166.261719 144.867188 C 157.121094 154.5 155.390625 164.585938 153.386719 176.257812 C 151.273438 188.59375 148.878906 202.578125 136.84375 219.304688 C 116.742188 247.273438 91.933594 265.148438 63.097656 272.433594 C 62.78125 272.515625 62.59375 272.832031 62.675781 273.140625 C 62.742188 273.40625 62.980469 273.585938 63.242188 273.585938 C 63.289062 273.585938 63.335938 273.578125 63.390625 273.566406 C 92.5 266.214844 117.535156 248.1875 137.800781 219.988281 Z M 137.800781 219.988281 " fill-opacity="1" fill-rule="nonzero"/></g><g clip-path="url(#b1fb0a42f2)"><path fill="#414042" d="M 127.214844 215.992188 C 140.332031 197.765625 142.929688 182.570312 145.21875 169.171875 C 147.335938 156.808594 149.15625 146.136719 158.746094 136.042969 C 168.074219 126.214844 183.167969 122.648438 197.765625 119.195312 C 214.738281 115.179688 230.761719 111.394531 237.292969 98.363281 C 240.679688 91.605469 242.378906 84.640625 244.027344 77.90625 C 247.953125 61.839844 251.664062 46.664062 276.859375 34.617188 C 277.152344 34.476562 277.273438 34.125 277.132812 33.839844 C 276.992188 33.546875 276.640625 33.425781 276.355469 33.566406 C 250.660156 45.851562 246.890625 61.289062 242.894531 77.628906 C 241.265625 84.300781 239.578125 91.195312 236.253906 97.84375 C 229.96875 110.386719 214.199219 114.113281 197.503906 118.0625 C 182.742188 121.554688 167.472656 125.160156 157.902344 135.242188 C 148.070312 145.59375 146.21875 156.429688 144.070312 168.976562 C 141.796875 182.257812 139.226562 197.308594 126.269531 215.3125 C 104.644531 245.398438 77.941406 264.617188 46.910156 272.441406 C 46.59375 272.523438 46.40625 272.839844 46.484375 273.148438 C 46.546875 273.410156 46.789062 273.589844 47.050781 273.589844 C 47.097656 273.589844 47.144531 273.585938 47.195312 273.574219 C 78.496094 265.675781 105.421875 246.304688 127.214844 215.992188 Z M 127.214844 215.992188 " fill-opacity="1" fill-rule="nonzero"/></g><g clip-path="url(#569df624b0)"><path fill="#414042" d="M 116.625 211.992188 C 130.664062 192.484375 133.4375 176.222656 135.890625 161.875 C 138.152344 148.636719 140.101562 137.210938 150.375 126.398438 C 160.375 115.871094 176.550781 112.0625 192.1875 108.371094 C 210.351562 104.085938 227.507812 100.042969 234.484375 86.113281 C 238.105469 78.878906 239.925781 71.433594 241.683594 64.222656 C 245.886719 47.019531 249.851562 30.765625 276.859375 17.863281 C 277.152344 17.722656 277.273438 17.378906 277.132812 17.085938 C 276.992188 16.792969 276.640625 16.671875 276.355469 16.8125 C 248.851562 29.949219 244.824219 46.464844 240.550781 63.949219 C 238.8125 71.09375 237.007812 78.476562 233.441406 85.59375 C 226.707031 99.035156 209.8125 103.019531 191.917969 107.230469 C 176.113281 110.957031 159.765625 114.8125 149.527344 125.585938 C 139.011719 136.65625 137.03125 148.246094 134.742188 161.667969 C 132.308594 175.886719 129.558594 192.011719 115.679688 211.296875 C 92.523438 243.496094 63.933594 264.0625 30.699219 272.421875 C 30.382812 272.5 30.195312 272.820312 30.273438 273.128906 C 30.335938 273.394531 30.578125 273.574219 30.839844 273.574219 C 30.886719 273.574219 30.933594 273.566406 30.980469 273.554688 C 64.492188 265.136719 93.304688 244.421875 116.625 211.992188 Z M 116.625 211.992188 " fill-opacity="1" fill-rule="nonzero"/></g><g clip-path="url(#22443f0600)"><path fill="#414042" d="M 106.039062 207.988281 C 121.007812 187.199219 123.957031 169.871094 126.5625 154.582031 C 128.96875 140.476562 131.042969 128.285156 142 116.757812 C 152.675781 105.535156 169.925781 101.476562 186.609375 97.554688 C 205.96875 93.003906 224.246094 88.707031 231.679688 73.878906 C 235.539062 66.175781 237.472656 58.234375 239.347656 50.558594 C 243.824219 32.210938 248.046875 14.882812 276.859375 1.132812 C 277.152344 0.992188 277.273438 0.648438 277.132812 0.355469 C 276.992188 0.0625 276.640625 -0.0585938 276.355469 0.0820312 C 263.199219 6.359375 253.917969 14.046875 247.964844 23.582031 C 242.648438 32.105469 240.394531 41.347656 238.214844 50.289062 C 236.359375 57.902344 234.441406 65.777344 230.640625 73.367188 C 223.453125 87.707031 205.429688 91.941406 186.347656 96.429688 C 169.492188 100.390625 152.074219 104.492188 141.160156 115.964844 C 129.957031 127.746094 127.851562 140.097656 125.410156 154.398438 C 122.828125 169.554688 119.898438 186.742188 105.09375 207.3125 C 80.40625 241.625 49.929688 263.539062 14.5 272.441406 C 14.183594 272.515625 13.996094 272.839844 14.074219 273.148438 C 14.136719 273.410156 14.378906 273.589844 14.640625 273.589844 C 14.6875 273.589844 14.734375 273.585938 14.78125 273.574219 C 50.484375 264.601562 81.1875 242.535156 106.039062 207.988281 Z M 106.039062 207.988281 " fill-opacity="1" fill-rule="nonzero"/></g><g clip-path="url(#3d112bd941)"><path fill="#414042" d="M 95.453125 203.992188 C 111.34375 181.921875 114.476562 163.527344 117.238281 147.300781 C 119.792969 132.316406 121.992188 119.371094 133.636719 107.125 C 144.976562 95.203125 163.308594 90.902344 181.035156 86.742188 C 201.585938 81.921875 221 77.367188 228.875 61.640625 C 232.96875 53.460938 235.027344 45.039062 237.011719 36.890625 C 241.703125 17.640625 246.132812 -0.539062 275.726562 -15.054688 C 276.015625 -15.195312 276.132812 -15.546875 275.992188 -15.839844 C 275.855469 -16.128906 275.503906 -16.246094 275.210938 -16.105469 C 245.125 -1.34375 240.632812 17.09375 235.878906 36.613281 C 233.910156 44.699219 231.871094 53.058594 227.835938 61.117188 C 220.199219 76.351562 201.050781 80.847656 180.773438 85.605469 C 162.878906 89.804688 144.375 94.144531 132.796875 106.320312 C 120.90625 118.820312 118.675781 131.921875 116.085938 147.101562 C 113.347656 163.207031 110.242188 181.457031 94.507812 203.308594 C 68.289062 239.746094 35.921875 263 -1.707031 272.433594 C -2.019531 272.511719 -2.207031 272.832031 -2.132812 273.140625 C -2.066406 273.40625 -1.828125 273.585938 -1.566406 273.585938 C -1.519531 273.585938 -1.472656 273.578125 -1.425781 273.566406 C 36.480469 264.0625 69.074219 240.65625 95.453125 203.992188 Z M 95.453125 203.992188 " fill-opacity="1" fill-rule="nonzero"/><path fill="#414042" d="M 84.871094 199.992188 C 101.683594 176.636719 104.996094 157.175781 107.910156 140.007812 C 110.609375 124.148438 112.933594 110.449219 125.265625 97.484375 C 137.277344 84.863281 156.683594 80.316406 175.453125 75.925781 C 197.195312 70.832031 217.734375 66.023438 226.066406 49.398438 C 230.398438 40.75 232.566406 31.835938 234.664062 23.214844 C 237.992188 9.542969 241.136719 -3.367188 252.199219 -15.183594 C 252.421875 -15.417969 252.410156 -15.792969 252.171875 -16.007812 C 251.933594 -16.222656 251.5625 -16.21875 251.347656 -15.976562 C 240.074219 -3.9375 236.742188 9.726562 233.53125 22.941406 C 231.445312 31.496094 229.296875 40.347656 225.019531 48.878906 C 216.933594 65.011719 196.65625 69.761719 175.183594 74.789062 C 156.242188 79.226562 136.664062 83.8125 124.414062 96.6875 C 111.835938 109.90625 109.480469 123.769531 106.753906 139.816406 C 103.855469 156.863281 100.570312 176.179688 83.910156 199.3125 C 57.554688 235.949219 25.238281 260.027344 -12.136719 270.882812 C -12.449219 270.96875 -12.628906 271.296875 -12.535156 271.605469 C -12.460938 271.863281 -12.226562 272.027344 -11.976562 272.027344 C -11.921875 272.027344 -11.863281 272.019531 -11.8125 272.003906 C 25.820312 261.074219 58.347656 236.847656 84.871094 199.992188 Z M 84.871094 199.992188 " fill-opacity="1" fill-rule="nonzero"/><path fill="#414042" d="M -11.976562 266.457031 C -11.90625 266.457031 -11.828125 266.445312 -11.757812 266.417969 C 21.242188 253.15625 50.191406 229.457031 74.285156 195.988281 C 92.027344 171.355469 95.511719 150.828125 98.585938 132.71875 C 101.429688 115.980469 103.882812 101.527344 116.898438 87.847656 C 129.578125 74.527344 150.0625 69.738281 169.878906 65.105469 C 192.820312 59.742188 214.484375 54.679688 223.261719 37.152344 C 227.828125 28.035156 230.117188 18.628906 232.328125 9.53125 C 234.4375 0.871094 236.429688 -7.316406 240.226562 -15.339844 C 240.363281 -15.632812 240.238281 -15.984375 239.945312 -16.117188 C 239.652344 -16.257812 239.300781 -16.128906 239.167969 -15.839844 C 235.316406 -7.707031 233.222656 0.917969 231.1875 9.257812 C 228.992188 18.289062 226.71875 27.625 222.210938 36.625 C 213.675781 53.660156 192.269531 58.667969 169.605469 63.960938 C 149.625 68.628906 128.964844 73.460938 116.046875 87.035156 C 102.785156 100.972656 100.304688 115.589844 97.429688 132.511719 C 94.375 150.5 90.910156 170.882812 73.332031 195.300781 C 49.375 228.585938 20.597656 252.148438 -12.195312 265.324219 C -12.496094 265.449219 -12.640625 265.785156 -12.519531 266.085938 C -12.425781 266.324219 -12.207031 266.457031 -11.976562 266.457031 Z M -11.976562 266.457031 " fill-opacity="1" fill-rule="nonzero"/></g><g clip-path="url(#4fe45c5077)"><path fill="#414042" d="M 164.035156 53.160156 C 143.011719 58.066406 121.273438 63.136719 107.6875 77.40625 C 93.738281 92.058594 91.132812 107.433594 88.113281 125.234375 C 84.898438 144.160156 81.257812 165.613281 62.753906 191.3125 C 41.3125 221.082031 16.082031 243.558594 -12.242188 258.109375 C -12.53125 258.257812 -12.648438 258.613281 -12.496094 258.898438 C -12.390625 259.105469 -12.183594 259.214844 -11.976562 259.214844 C -11.886719 259.214844 -11.792969 259.191406 -11.707031 259.152344 C 16.785156 244.511719 42.15625 221.921875 63.699219 191.992188 C 82.363281 166.074219 86.027344 144.484375 89.261719 125.425781 C 92.253906 107.816406 94.828125 92.609375 108.535156 78.207031 C 121.882812 64.1875 143.445312 59.160156 164.304688 54.285156 C 188.4375 48.65625 211.234375 43.339844 220.460938 24.914062 C 225.269531 15.320312 227.671875 5.425781 229.996094 -4.144531 C 230.902344 -7.859375 231.832031 -11.703125 232.886719 -15.429688 C 232.976562 -15.738281 232.792969 -16.058594 232.484375 -16.148438 C 232.175781 -16.234375 231.855469 -16.054688 231.765625 -15.746094 C 230.703125 -11.992188 229.769531 -8.136719 228.863281 -4.417969 C 226.554688 5.085938 224.167969 14.914062 219.417969 24.386719 C 210.433594 42.328125 187.894531 47.59375 164.035156 53.160156 Z M 164.035156 53.160156 " fill-opacity="1" fill-rule="nonzero"/></g><g clip-path="url(#7df17d8f4a)"><path fill="#414042" d="M 158.457031 42.339844 C 136.394531 47.480469 113.574219 52.796875 99.316406 67.769531 C 84.683594 83.140625 81.949219 99.269531 78.78125 117.945312 C 75.410156 137.8125 71.597656 160.332031 52.160156 187.308594 C 33.363281 213.421875 11.683594 234.269531 -12.285156 249.289062 C -12.558594 249.460938 -12.640625 249.820312 -12.472656 250.097656 C -12.359375 250.269531 -12.167969 250.371094 -11.976562 250.371094 C -11.871094 250.371094 -11.765625 250.339844 -11.664062 250.28125 C 12.433594 235.183594 34.222656 214.226562 53.113281 188 C 72.707031 160.800781 76.546875 138.140625 79.933594 118.144531 C 83.0625 99.652344 85.773438 83.6875 100.164062 68.582031 C 114.175781 53.859375 136.824219 48.585938 158.722656 43.484375 C 184.050781 37.585938 207.972656 32.011719 217.648438 12.6875 C 222.25 3.5 224.734375 -5.859375 227.070312 -15.433594 C 227.144531 -15.75 226.953125 -16.066406 226.644531 -16.140625 C 226.328125 -16.21875 226.011719 -16.023438 225.9375 -15.714844 C 223.609375 -6.203125 221.152344 3.078125 216.601562 12.160156 C 207.171875 30.988281 183.511719 36.503906 158.457031 42.339844 Z M 158.457031 42.339844 " fill-opacity="1" fill-rule="nonzero"/></g><g clip-path="url(#d8afdfe62b)"><path fill="#414042" d="M 152.886719 31.519531 C 129.773438 36.902344 105.875 42.457031 90.949219 58.128906 C 75.628906 74.21875 72.765625 91.101562 69.457031 110.652344 C 65.9375 131.460938 61.941406 155.050781 41.582031 183.308594 C 25.523438 205.605469 7.390625 224.316406 -12.320312 238.933594 C -12.578125 239.125 -12.636719 239.492188 -12.441406 239.75 C -12.324219 239.902344 -12.148438 239.984375 -11.976562 239.984375 C -11.851562 239.984375 -11.730469 239.949219 -11.628906 239.867188 C 8.171875 225.179688 26.394531 206.382812 42.523438 183.984375 C 63.039062 155.5 67.058594 131.777344 70.605469 110.839844 C 73.882812 91.480469 76.714844 74.757812 91.792969 58.929688 C 106.476562 43.515625 130.203125 37.992188 153.140625 32.65625 C 179.664062 26.484375 204.714844 20.65625 214.84375 0.429688 C 217.195312 -4.265625 219.230469 -9.445312 221.0625 -15.417969 C 221.15625 -15.726562 220.988281 -16.054688 220.679688 -16.148438 C 220.367188 -16.242188 220.042969 -16.070312 219.949219 -15.761719 C 218.136719 -9.855469 216.121094 -4.734375 213.804688 -0.09375 C 203.917969 19.644531 179.125 25.417969 152.886719 31.519531 Z M 152.886719 31.519531 " fill-opacity="1" fill-rule="nonzero"/></g><g clip-path="url(#30d4f5a47b)"><path fill="#414042" d="M 82.578125 48.496094 C 66.574219 65.304688 63.582031 82.941406 60.128906 103.367188 C 56.449219 125.117188 52.277344 149.769531 30.992188 179.316406 C 17.8125 197.621094 3.226562 213.683594 -12.355469 227.066406 C -12.601562 227.277344 -12.628906 227.644531 -12.417969 227.890625 C -12.300781 228.027344 -12.136719 228.097656 -11.976562 228.097656 C -11.839844 228.097656 -11.707031 228.050781 -11.59375 227.957031 C 4.058594 214.515625 18.707031 198.378906 31.9375 180 C 53.382812 150.238281 57.578125 125.445312 61.28125 103.566406 C 64.703125 83.332031 67.664062 65.851562 83.425781 49.308594 C 98.777344 33.191406 123.582031 27.425781 147.570312 21.851562 C 175.28125 15.410156 201.460938 9.328125 212.039062 -11.796875 C 212.609375 -12.941406 213.175781 -14.132812 213.714844 -15.335938 C 213.847656 -15.628906 213.714844 -15.976562 213.421875 -16.105469 C 213.132812 -16.242188 212.78125 -16.105469 212.652344 -15.816406 C 212.121094 -14.628906 211.566406 -13.449219 211 -12.320312 C 200.664062 8.304688 174.746094 14.328125 147.304688 20.707031 C 123.152344 26.320312 98.175781 32.121094 82.578125 48.496094 Z M 82.578125 48.496094 " fill-opacity="1" fill-rule="nonzero"/></g><g clip-path="url(#9c29029081)"><path fill="#414042" d="M 74.214844 38.859375 C 57.519531 56.378906 54.40625 74.78125 50.804688 96.078125 C 46.96875 118.769531 42.617188 144.488281 20.410156 175.316406 C 10.234375 189.441406 -0.792969 202.355469 -12.378906 213.707031 C -12.605469 213.9375 -12.613281 214.304688 -12.382812 214.53125 C -12.265625 214.648438 -12.117188 214.707031 -11.96875 214.707031 C -11.824219 214.707031 -11.671875 214.648438 -11.558594 214.539062 C 0.0703125 203.140625 11.148438 190.171875 21.359375 175.992188 C 43.726562 144.949219 48.101562 119.089844 51.957031 96.269531 C 55.527344 75.160156 58.609375 56.925781 75.0625 39.664062 C 91.085938 22.847656 116.964844 16.839844 141.988281 11.027344 C 166.652344 5.304688 189.949219 -0.105469 203.253906 -15.195312 C 203.46875 -15.433594 203.445312 -15.808594 203.199219 -16.019531 C 202.960938 -16.234375 202.585938 -16.207031 202.375 -15.964844 C 189.324219 -1.15625 166.203125 4.207031 141.726562 9.890625 C 116.53125 15.738281 90.476562 21.789062 74.214844 38.859375 Z M 74.214844 38.859375 " fill-opacity="1" fill-rule="nonzero"/></g><g clip-path="url(#82af346af3)"><path fill="#414042" d="M 65.84375 29.21875 C 48.464844 47.457031 45.222656 66.613281 41.476562 88.789062 C 37.480469 112.421875 32.953125 139.207031 9.820312 171.3125 C 2.773438 181.09375 -4.703125 190.371094 -12.40625 198.886719 C -12.625 199.125 -12.605469 199.496094 -12.367188 199.710938 C -12.253906 199.808594 -12.117188 199.863281 -11.976562 199.863281 C -11.816406 199.863281 -11.660156 199.796875 -11.542969 199.671875 C -3.808594 191.125 3.699219 181.8125 10.765625 171.996094 C 34.058594 139.667969 38.613281 112.738281 42.628906 88.988281 C 46.34375 67 49.554688 48.007812 66.691406 30.03125 C 83.378906 12.519531 110.339844 6.261719 136.410156 0.214844 C 154.234375 -3.914062 171.066406 -7.824219 184.558594 -15.0625 C 184.84375 -15.210938 184.949219 -15.570312 184.796875 -15.851562 C 184.648438 -16.128906 184.289062 -16.242188 184.011719 -16.089844 C 170.65625 -8.921875 153.894531 -5.035156 136.152344 -0.917969 C 109.914062 5.15625 82.777344 11.449219 65.84375 29.21875 Z M 65.84375 29.21875 " fill-opacity="1" fill-rule="nonzero"/></g><g clip-path="url(#9628b29fcb)"><path fill="#414042" d="M 57.476562 19.582031 C 39.410156 38.535156 36.042969 58.445312 32.152344 81.496094 C 28 106.074219 23.296875 133.925781 -0.765625 167.3125 C -4.519531 172.523438 -8.445312 177.664062 -12.429688 182.589844 C -12.636719 182.839844 -12.59375 183.207031 -12.34375 183.414062 C -12.230469 183.5 -12.105469 183.542969 -11.976562 183.542969 C -11.804688 183.542969 -11.636719 183.464844 -11.519531 183.324219 C -7.523438 178.382812 -3.585938 173.230469 0.179688 167.996094 C 24.402344 134.386719 29.128906 106.390625 33.304688 81.691406 C 37.164062 58.824219 40.5 39.082031 58.324219 20.386719 C 75.6875 2.171875 103.726562 -4.324219 130.839844 -10.609375 C 136.902344 -12.015625 143.175781 -13.464844 149.144531 -15.019531 C 149.457031 -15.101562 149.648438 -15.417969 149.566406 -15.734375 C 149.484375 -16.042969 149.167969 -16.234375 148.855469 -16.152344 C 142.902344 -14.605469 136.632812 -13.15625 130.574219 -11.75 C 103.292969 -5.421875 75.078125 1.113281 57.476562 19.582031 Z M 57.476562 19.582031 " fill-opacity="1" fill-rule="nonzero"/></g><g clip-path="url(#7979366e4a)"><path fill="#414042" d="M 49.105469 9.949219 C 30.355469 29.617188 26.867188 50.277344 22.824219 74.207031 C 18.519531 99.722656 13.636719 128.640625 -11.351562 163.3125 C -11.59375 163.65625 -11.847656 163.996094 -12.097656 164.339844 L -12.449219 164.816406 C -12.636719 165.082031 -12.582031 165.441406 -12.320312 165.636719 C -12.214844 165.710938 -12.097656 165.746094 -11.976562 165.746094 C -11.792969 165.746094 -11.617188 165.664062 -11.5 165.507812 L -11.152344 165.027344 C -10.898438 164.683594 -10.648438 164.339844 -10.398438 163.996094 C 14.746094 129.101562 19.652344 100.039062 23.980469 74.398438 C 27.988281 50.660156 31.453125 30.160156 49.960938 10.746094 C 63.628906 -3.59375 83.589844 -10.558594 99.449219 -15.019531 C 99.761719 -15.109375 99.941406 -15.429688 99.855469 -15.738281 C 99.765625 -16.046875 99.445312 -16.230469 99.136719 -16.140625 C 83.121094 -11.636719 62.972656 -4.597656 49.105469 9.949219 Z M 49.105469 9.949219 " fill-opacity="1" fill-rule="nonzero"/></g><g clip-path="url(#d1d75c393d)"><path fill="#414042" d="M -12.476562 144.960938 C -12.640625 145.238281 -12.554688 145.597656 -12.277344 145.761719 C -12.183594 145.820312 -12.082031 145.84375 -11.980469 145.84375 C -11.78125 145.84375 -11.589844 145.746094 -11.480469 145.558594 C 6.4375 115.675781 10.796875 89.875 14.640625 67.113281 C 18.800781 42.496094 22.386719 21.238281 41.582031 1.109375 C 47.574219 -5.175781 55 -10.464844 64.28125 -15.0625 C 64.574219 -15.207031 64.691406 -15.550781 64.546875 -15.84375 C 64.398438 -16.128906 64.054688 -16.253906 63.761719 -16.105469 C 54.359375 -11.445312 46.820312 -6.078125 40.734375 0.304688 C 21.292969 20.691406 17.675781 42.113281 13.484375 66.921875 C 9.664062 89.582031 5.328125 115.269531 -12.476562 144.960938 Z M -12.476562 144.960938 " fill-opacity="1" fill-rule="nonzero"/></g><g clip-path="url(#1356401039)"><path fill="#414042" d="M -12.214844 121.699219 C -12.136719 121.734375 -12.058594 121.753906 -11.976562 121.753906 C -11.753906 121.753906 -11.535156 121.625 -11.445312 121.40625 C -1.230469 98.65625 2.25 78.027344 5.316406 59.832031 C 9.617188 34.335938 13.332031 12.324219 33.214844 -8.523438 C 35.378906 -10.789062 37.824219 -13.011719 40.484375 -15.125 C 40.734375 -15.324219 40.777344 -15.691406 40.578125 -15.941406 C 40.378906 -16.195312 40.011719 -16.234375 39.753906 -16.035156 C 37.050781 -13.894531 34.566406 -11.636719 32.363281 -9.332031 C 12.246094 11.777344 8.5 33.957031 4.164062 59.636719 C 1.105469 77.765625 -2.359375 98.316406 -12.507812 120.933594 C -12.640625 121.226562 -12.507812 121.570312 -12.214844 121.699219 Z M -12.214844 121.699219 " fill-opacity="1" fill-rule="nonzero"/></g><g clip-path="url(#9f036def24)"><path fill="#414042" d="M -12.535156 88.167969 C -12.625 88.476562 -12.4375 88.800781 -12.128906 88.886719 C -12.074219 88.898438 -12.023438 88.910156 -11.96875 88.910156 C -11.710938 88.910156 -11.480469 88.742188 -11.410156 88.476562 C -7.914062 75.773438 -5.921875 63.972656 -4 52.550781 C 0.257812 27.304688 3.9375 5.503906 22.148438 -15.195312 C 22.355469 -15.441406 22.332031 -15.808594 22.09375 -16.019531 C 21.855469 -16.230469 21.480469 -16.207031 21.269531 -15.964844 C 2.839844 4.980469 -0.863281 26.933594 -5.152344 52.359375 C -7.074219 63.746094 -9.066406 75.519531 -12.535156 88.167969 Z M -12.535156 88.167969 " fill-opacity="1" fill-rule="nonzero"/></g><g clip-path="url(#b0e63c845e)"><path fill="#414042" d="M -12.082031 34.570312 C -12.046875 34.578125 -12.011719 34.582031 -11.976562 34.582031 C -11.699219 34.582031 -11.449219 34.382812 -11.402344 34.101562 C -7.957031 15.125 -3.621094 -0.539062 6.332031 -15.246094 C 6.515625 -15.515625 6.445312 -15.878906 6.175781 -16.058594 C 5.90625 -16.242188 5.550781 -16.175781 5.367188 -15.90625 C -1.914062 -5.148438 -7.75 7.441406 -12.546875 33.886719 C -12.605469 34.207031 -12.394531 34.511719 -12.082031 34.570312 Z M -12.082031 34.570312 " fill-opacity="1" fill-rule="nonzero"/></g></g></g></g></g></svg>