<svg xmlns="http://www.w3.org/2000/svg" xmlns:xlink="http://www.w3.org/1999/xlink" width="321" zoomAndPan="magnify" viewBox="0 0 240.75 141.750002" height="189" preserveAspectRatio="xMidYMid meet" version="1.0"><defs><clipPath id="dcde829074"><path d="M 198 78.46875 L 206.332031 78.46875 L 206.332031 87 L 198 87 Z M 198 78.46875 " clip-rule="nonzero"/></clipPath><clipPath id="efe03aaabc"><path d="M 178.628906 78.46875 L 187 78.46875 L 187 87 L 178.628906 87 Z M 178.628906 78.46875 " clip-rule="nonzero"/></clipPath><clipPath id="77b49db467"><path d="M 198 97 L 206.332031 97 L 206.332031 106 L 198 106 Z M 198 97 " clip-rule="nonzero"/></clipPath><clipPath id="ded4bb47e7"><path d="M 178.628906 97 L 187 97 L 187 106 L 178.628906 106 Z M 178.628906 97 " clip-rule="nonzero"/></clipPath></defs><g clip-path="url(#dcde829074)"><path fill="#4e2f68" d="M 205.308594 79.59375 L 205.308594 86.128906 C 205.308594 86.226562 205.347656 86.324219 205.417969 86.394531 C 205.652344 86.628906 206.054688 86.460938 206.054688 86.128906 L 206.054688 78.84375 C 206.054688 78.636719 205.886719 78.472656 205.679688 78.472656 L 198.394531 78.472656 C 198.0625 78.472656 197.894531 78.875 198.132812 79.109375 C 198.203125 79.179688 198.296875 79.21875 198.394531 79.21875 L 204.933594 79.21875 C 205.140625 79.21875 205.308594 79.386719 205.308594 79.59375 Z M 205.308594 79.59375 " fill-opacity="1" fill-rule="nonzero"/></g><g clip-path="url(#efe03aaabc)"><path fill="#4e2f68" d="M 179.753906 79.21875 L 186.289062 79.21875 C 186.390625 79.21875 186.484375 79.179688 186.554688 79.109375 C 186.789062 78.875 186.621094 78.472656 186.289062 78.472656 L 179.003906 78.472656 C 178.796875 78.472656 178.632812 78.636719 178.632812 78.84375 L 178.632812 86.128906 C 178.632812 86.460938 179.035156 86.628906 179.269531 86.394531 C 179.339844 86.324219 179.378906 86.226562 179.378906 86.128906 L 179.378906 79.59375 C 179.378906 79.386719 179.546875 79.21875 179.753906 79.21875 Z M 179.753906 79.21875 " fill-opacity="1" fill-rule="nonzero"/></g><g clip-path="url(#77b49db467)"><path fill="#4e2f68" d="M 205.417969 97.972656 C 205.347656 98.042969 205.308594 98.136719 205.308594 98.234375 L 205.308594 104.773438 C 205.308594 104.980469 205.140625 105.144531 204.933594 105.144531 L 198.394531 105.144531 C 198.296875 105.144531 198.203125 105.183594 198.132812 105.257812 C 197.898438 105.492188 198.0625 105.894531 198.394531 105.894531 L 205.679688 105.894531 C 205.886719 105.894531 206.054688 105.726562 206.054688 105.519531 L 206.054688 98.234375 C 206.054688 97.902344 205.652344 97.734375 205.417969 97.972656 Z M 205.417969 97.972656 " fill-opacity="1" fill-rule="nonzero"/></g><g clip-path="url(#ded4bb47e7)"><path fill="#4e2f68" d="M 179.378906 104.773438 L 179.378906 98.234375 C 179.378906 98.136719 179.339844 98.042969 179.269531 97.972656 C 179.035156 97.738281 178.632812 97.902344 178.632812 98.234375 L 178.632812 105.519531 C 178.632812 105.726562 178.796875 105.894531 179.003906 105.894531 L 186.289062 105.894531 C 186.621094 105.894531 186.789062 105.492188 186.554688 105.257812 C 186.484375 105.1875 186.386719 105.144531 186.289062 105.144531 L 179.753906 105.144531 C 179.546875 105.144531 179.378906 104.980469 179.378906 104.773438 Z M 179.378906 104.773438 " fill-opacity="1" fill-rule="nonzero"/></g></svg>