<svg xmlns="http://www.w3.org/2000/svg" xmlns:xlink="http://www.w3.org/1999/xlink" width="321" zoomAndPan="magnify" viewBox="0 0 240.75 141.750002" height="189" preserveAspectRatio="xMidYMid meet" version="1.0"><defs><clipPath id="70dd07abff"><path d="M 0.0859375 132.785156 L 120.347656 132.785156 L 120.347656 141.484375 L 0.0859375 141.484375 Z M 0.0859375 132.785156 " clip-rule="nonzero"/></clipPath><clipPath id="8cd61f2613"><path d="M 108.492188 132.785156 L 126.628906 132.785156 L 126.628906 141.484375 L 108.492188 141.484375 Z M 108.492188 132.785156 " clip-rule="nonzero"/></clipPath><clipPath id="aae6e6ee02"><path d="M 92 115 L 147 115 L 147 141.5 L 92 141.5 Z M 92 115 " clip-rule="nonzero"/></clipPath><clipPath id="5657d4adcb"><path d="M 48 66 L 205 66 L 205 141.5 L 48 141.5 Z M 48 66 " clip-rule="nonzero"/></clipPath></defs><g clip-path="url(#70dd07abff)"><path fill="#333133" d="M 0.0859375 132.785156 L 120.34375 132.785156 L 120.34375 141.484375 L 0.0859375 141.484375 Z M 0.0859375 132.785156 " fill-opacity="1" fill-rule="nonzero"/></g><g clip-path="url(#8cd61f2613)"><path fill="#333133" d="M 108.492188 132.785156 L 126.636719 132.785156 L 126.636719 141.484375 L 108.492188 141.484375 Z M 108.492188 132.785156 " fill-opacity="1" fill-rule="nonzero"/></g><g clip-path="url(#aae6e6ee02)"><path stroke-linecap="butt" transform="matrix(0.661375, -0.350863, 0.350863, 0.661375, 108.490119, 142.120355)" fill="none" stroke-linejoin="miter" d="M 0.000545859 1.997722 L 30.321778 2.000544 " stroke="#ffffff" stroke-width="4" stroke-opacity="1" stroke-miterlimit="4"/></g><g clip-path="url(#5657d4adcb)"><path stroke-linecap="butt" transform="matrix(0.661375, -0.350863, 0.350863, 0.661375, 113.796818, 139.474857)" fill="none" stroke-linejoin="miter" d="M 0.00220938 8.000824 L 30.318832 8.001202 " stroke="#ffffff" stroke-width="16" stroke-opacity="1" stroke-miterlimit="4"/></g></svg>