<svg xmlns="http://www.w3.org/2000/svg" xmlns:xlink="http://www.w3.org/1999/xlink" width="321" zoomAndPan="magnify" viewBox="0 0 240.75 141.750002" height="189" preserveAspectRatio="xMidYMid meet" version="1.0"><defs><clipPath id="fa80bcbf33"><path d="M 46 111 L 158 111 L 158 141.5 L 46 141.5 Z M 46 111 " clip-rule="nonzero"/></clipPath><clipPath id="1562d98760"><path d="M 125.335938 189.53125 L 43.238281 140.097656 L 75.683594 86.222656 L 157.777344 135.65625 Z M 125.335938 189.53125 " clip-rule="nonzero"/></clipPath><clipPath id="0c49b2b2a2"><path d="M 134.765625 223.390625 L 30.863281 160.824219 L 75.664062 86.425781 L 179.566406 148.992188 Z M 134.765625 223.390625 " clip-rule="nonzero"/></clipPath></defs><g clip-path="url(#fa80bcbf33)"><g clip-path="url(#1562d98760)"><g clip-path="url(#0c49b2b2a2)"><path fill="#d1ffb7" d="M 52.683594 124.050781 C 54.390625 121.085938 56.441406 118.410156 59.136719 116.320312 C 64.84375 111.894531 71.234375 110.628906 78.1875 112.65625 C 80.292969 113.289062 82.292969 114.167969 84.179688 115.296875 C 86.027344 116.382812 87.964844 117.273438 89.992188 117.96875 C 92.992188 118.992188 96.078125 119.054688 99.175781 118.4375 C 101.652344 117.945312 104.023438 117.121094 106.410156 116.308594 C 107.972656 115.769531 109.519531 115.15625 111.195312 115.015625 C 111.410156 114.992188 111.617188 114.941406 111.816406 114.859375 C 115.234375 113.617188 118.65625 113.851562 122.042969 114.9375 C 125.214844 115.953125 127.828125 117.878906 130.09375 120.289062 C 131.96875 122.269531 133.59375 124.464844 135.199219 126.667969 C 137.085938 129.261719 138.972656 131.859375 141.269531 134.113281 C 142.871094 135.6875 144.570312 137.175781 146.578125 138.207031 C 148.472656 139.179688 150.433594 140.035156 152.398438 140.859375 C 155.113281 141.996094 157.910156 142.910156 160.550781 144.167969 C 162.742188 145.1875 164.796875 146.425781 166.722656 147.886719 C 170.039062 150.472656 171.628906 154.027344 171.511719 158.261719 C 171.417969 161.675781 170.132812 164.664062 168.109375 167.414062 C 165.179688 171.382812 161.511719 174.546875 157.464844 177.28125 C 153.964844 179.644531 150.386719 181.890625 146.832031 184.171875 C 144.582031 185.617188 142.386719 187.128906 140.285156 188.789062 C 137.542969 190.960938 135.1875 193.496094 132.976562 196.183594 C 130.734375 198.90625 128.507812 201.640625 125.722656 203.851562 C 120.636719 207.894531 114.988281 208.894531 108.824219 206.90625 C 106.78125 206.242188 104.84375 205.351562 103.007812 204.238281 C 101.316406 203.214844 99.628906 202.179688 97.921875 201.175781 C 97.183594 200.734375 96.542969 200.175781 96.003906 199.503906 C 94.308594 197.441406 92.632812 195.355469 90.875 193.347656 C 88.199219 190.253906 85.132812 187.617188 81.679688 185.425781 C 79.5 184.054688 77.128906 183.066406 74.738281 182.136719 C 72 181.078125 69.203125 180.164062 66.476562 179.085938 C 64.941406 178.484375 63.371094 177.914062 62.007812 176.9375 C 61.648438 176.703125 61.261719 176.527344 60.851562 176.402344 C 60.167969 176.203125 59.585938 175.84375 59.105469 175.316406 C 58.933594 175.105469 58.730469 174.9375 58.496094 174.804688 C 56.078125 173.589844 54.382812 171.59375 52.820312 169.480469 C 50.621094 166.464844 49.054688 163.148438 48.125 159.53125 C 45.65625 150.269531 46.128906 141.101562 49.039062 132.035156 C 49.914062 129.21875 51.128906 126.554688 52.683594 124.050781 Z M 168.46875 164.648438 C 168.171875 164.738281 167.996094 164.742188 167.910156 164.832031 C 167.71875 165.027344 167.609375 165.292969 167.875 165.507812 C 167.953125 165.566406 168.238281 165.519531 168.273438 165.445312 C 168.367188 165.1875 168.433594 164.917969 168.46875 164.648438 Z M 168.46875 164.648438 " fill-opacity="1" fill-rule="nonzero"/></g></g></g></svg>