<svg xmlns="http://www.w3.org/2000/svg" xmlns:xlink="http://www.w3.org/1999/xlink" width="321" zoomAndPan="magnify" viewBox="0 0 240.75 141.750002" height="189" preserveAspectRatio="xMidYMid meet" version="1.0"><defs><clipPath id="596cfedd77"><path d="M 0.0859375 67.359375 L 74.953125 67.359375 L 74.953125 141.476562 L 0.0859375 141.476562 Z M 0.0859375 67.359375 " clip-rule="nonzero"/></clipPath></defs><g clip-path="url(#596cfedd77)"><path fill="#7ed957" d="M 0.238281 141.457031 L 75.167969 141.480469 C 74.8125 139.746094 74.332031 138.085938 73.726562 136.5 L 72.726562 134.179688 C 72 132.667969 71.152344 131.230469 70.175781 129.867188 C 68.46875 127.332031 65.789062 124.714844 62.140625 122.015625 C 60.238281 120.597656 57.570312 119.257812 54.132812 117.992188 C 43.738281 115.273438 37.261719 113.332031 34.710938 112.175781 C 32.683594 111.257812 30.652344 109.808594 28.609375 107.832031 C 25.75 104.746094 24.074219 102.429688 23.589844 100.878906 C 22.640625 99.207031 21.035156 93.71875 18.769531 84.414062 C 17.625 81.308594 15.808594 77.984375 13.3125 74.449219 C 12.140625 72.578125 7.789062 70.183594 0.261719 67.261719 Z M 0.238281 141.457031 " fill-opacity="1" fill-rule="nonzero"/><path fill="#e0ffcf" d="M 0.640625 67.3125 C 2.972656 73.269531 5.269531 79.117188 11.074219 82.519531 C 12.867188 83.566406 15 84.386719 17.3125 85.277344 C 19.96875 86.296875 22.847656 87.402344 25.648438 89.039062 C 28.308594 90.597656 30.902344 92.644531 33.171875 95.5625 C 36.589844 99.957031 39.261719 106.332031 41.914062 112.652344 C 44.472656 118.746094 47.011719 124.789062 50.1875 129.066406 C 56.632812 137.761719 65.722656 139.1875 74.941406 140.625 C 75.085938 140.648438 75.1875 140.785156 75.164062 140.933594 C 75.140625 141.078125 75.003906 141.179688 74.859375 141.15625 C 65.667969 139.722656 56.347656 138.28125 49.753906 129.386719 C 46.535156 125.046875 43.96875 118.933594 41.421875 112.859375 C 38.757812 106.519531 36.113281 100.21875 32.746094 95.890625 C 30.527344 93.035156 27.992188 91.035156 25.375 89.503906 C 22.621094 87.890625 19.78125 86.800781 17.121094 85.777344 C 14.816406 84.894531 12.640625 84.058594 10.800781 82.980469 C 4.8125 79.472656 2.460938 73.4375 0.140625 67.507812 C 0.0859375 67.371094 0.15625 67.214844 0.292969 67.160156 C 0.429688 67.105469 0.585938 67.175781 0.640625 67.3125 Z M 0.640625 67.3125 " fill-opacity="1" fill-rule="nonzero"/></g></svg>